<svg width="100%" height="100%" viewBox="0 0 1200 300" preserveAspectRatio="xMidYMax slice" xmlns="http://www.w3.org/2000/svg">
  <defs>
    <linearGradient id="skyNight" x1="0%" y1="0%" x2="0%" y2="100%">
      <stop offset="0%" style="stop-color:#0f0b1e;stop-opacity:1" />
      <stop offset="100%" style="stop-color:#312e4b;stop-opacity:1" />
    </linearGradient>
    <radialGradient id="moonGlow" cx="50%" cy="50%" r="50%">
      <stop offset="0%" style="stop-color:#ffffff;stop-opacity:0.9" />
      <stop offset="100%" style="stop-color:#c084fc;stop-opacity:0" />
    </radialGradient>
    <linearGradient id="winWarm" x1="0%" y1="0%" x2="0%" y2="100%">
      <stop offset="0%" style="stop-color:#fef08a" />
      <stop offset="100%" style="stop-color:#fbbf24" />
    </linearGradient>
  </defs>

  <rect width="100%" height="100%" fill="url(#skyNight)" />
  <circle cx="1000" cy="60" r="40" fill="url(#moonGlow)" />
  <circle cx="1000" cy="60" r="20" fill="#fff" />

  <path d="M100,300 V200 L130,190 L160,200 V240 H180 V170 L220,160 L260,170 V230 H280 V150 L330,140 L380,150 V250 H400 V180 L440,175 L480,185 V300 H900 V210 L940,200 L980,210 V250 H1000 V160 L1050,150 L1100,160 V300 Z" fill="#334155" />
  <path d="M0,300 V220 L40,210 L80,220 V300 H100 V160 L140,150 L180,160 V240 H200 V130 L250,120 L300,130 V230 H320 V180 L360,170 L400,180 V300 H420 V200 L460,190 L500,200 V300 H550 V150 L600,140 L650,150 V300 H700 V210 L750,200 L800,210 V300 H850 V170 L900,160 L950,170 V300 H1000 V230 L1040,220 L1080,230 V300 H1120 V190 L1160,180 L1200,190 V300 Z" fill="#1e293b" />

  <g fill="url(#winWarm)">
    <rect x="120" y="170" width="40" height="4" rx="1" />
    <rect x="220" y="150" width="60" height="6" rx="1" />
    <rect x="570" y="190" width="60" height="6" rx="1" />
    <rect x="870" y="210" width="60" height="6" rx="1" />
  </g>
  
  <rect y="285" width="100%" height="15" fill="#0f0b1e" />
  
  <g>
      <rect x="150" y="260" width="3" height="25" fill="#334155" />
      <circle cx="151.5" cy="260" r="6" fill="#fef08a" />
      <rect x="550" y="260" width="3" height="25" fill="#334155" />
      <circle cx="551.5" cy="260" r="6" fill="#fef08a" />
      <rect x="950" y="260" width="3" height="25" fill="#334155" />
      <circle cx="951.5" cy="260" r="6" fill="#fef08a" />
  </g>
</svg>